<svg id="visual" viewBox="0 0 1080 2440" width="1080" height="2440" xmlns="http://www.w3.org/2000/svg" xmlns:xlink="http://www.w3.org/1999/xlink" version="1.1"><rect x="0" y="0" width="1080" height="2440" fill="#001220"></rect><path d="M0 1951L36 1978.7C72 2006.3 144 2061.7 216 2065.8C288 2070 360 2023 432 2019.5C504 2016 576 2056 648 2060.2C720 2064.3 792 2032.7 864 2010.5C936 1988.3 1008 1975.7 1044 1969.3L1080 1963L1080 2441L1044 2441C1008 2441 936 2441 864 2441C792 2441 720 2441 648 2441C576 2441 504 2441 432 2441C360 2441 288 2441 216 2441C144 2441 72 2441 36 2441L0 2441Z" fill="#35df59"></path><path d="M0 2144L36 2147C72 2150 144 2156 216 2164.3C288 2172.7 360 2183.3 432 2167.3C504 2151.3 576 2108.7 648 2104.2C720 2099.7 792 2133.3 864 2147C936 2160.7 1008 2154.3 1044 2151.2L1080 2148L1080 2441L1044 2441C1008 2441 936 2441 864 2441C792 2441 720 2441 648 2441C576 2441 504 2441 432 2441C360 2441 288 2441 216 2441C144 2441 72 2441 36 2441L0 2441Z" fill="#2bbb4e"></path><path d="M0 2187L36 2187.8C72 2188.7 144 2190.3 216 2184.7C288 2179 360 2166 432 2164.3C504 2162.7 576 2172.3 648 2175C720 2177.7 792 2173.3 864 2182.8C936 2192.3 1008 2215.7 1044 2227.3L1080 2239L1080 2441L1044 2441C1008 2441 936 2441 864 2441C792 2441 720 2441 648 2441C576 2441 504 2441 432 2441C360 2441 288 2441 216 2441C144 2441 72 2441 36 2441L0 2441Z" fill="#249942"></path><path d="M0 2296L36 2290C72 2284 144 2272 216 2264.5C288 2257 360 2254 432 2261C504 2268 576 2285 648 2296.5C720 2308 792 2314 864 2318.5C936 2323 1008 2326 1044 2327.5L1080 2329L1080 2441L1044 2441C1008 2441 936 2441 864 2441C792 2441 720 2441 648 2441C576 2441 504 2441 432 2441C360 2441 288 2441 216 2441C144 2441 72 2441 36 2441L0 2441Z" fill="#1e7836"></path></svg>